<svg xmlns="http://www.w3.org/2000/svg" viewBox="0 0 1200 400"><defs><linearGradient id="bg" x1="0" y1="0" x2="1" y2="1"><stop stop-color="#102a43"/><stop offset="1" stop-color="#071b2d"/></linearGradient></defs><rect width="1200" height="400" rx="34" fill="url(#bg)"/><path d="M0 132c164-62 286 48 438-16s281 47 425 2 242 10 337-31v313H0z" fill="#0b2237"/><path d="M0 255c181-68 301 30 459-18s271 49 414 7 221 10 327-20v176H0z" fill="#091d30"/><text x="72" y="165" fill="#edf4f5" font-family="Inter,Segoe UI,Arial,sans-serif" font-size="57" font-weight="700">Gestión de Sectores ECICEP</text><text x="74" y="214" fill="#9fb3c2" font-family="Inter,Segoe UI,Arial,sans-serif" font-size="24" letter-spacing="2">seguimiento · REM · sectorización</text><rect x="74" y="247" width="150" height="5" rx="3" fill="#3bd3df"/><rect x="244" y="247" width="64" height="5" rx="3" fill="#436579"/><g transform="translate(805 65)"><rect x="104" y="62" width="235" height="190" rx="22" fill="#0d273d" stroke="#7894a2" stroke-width="8"/><rect x="126" y="88" width="117" height="137" rx="14" fill="#173a53"/><path d="M146 106l34 8 25-11 20 34-22 25 10 40-41 8-23-27-19-36z" fill="#d97b36" opacity=".9"/><path d="M184 112l42-9 20 34-20 31-31-10z" fill="#e3c04c" opacity=".9"/><path d="M155 159l40-1 31 10-11 40-44 2-22-27z" fill="#4fb96b" opacity=".9"/><circle cx="174" cy="140" r="8" fill="#edf4f5"/><circle cx="221" cy="132" r="8" fill="#edf4f5"/><circle cx="187" cy="188" r="8" fill="#edf4f5"/><rect x="263" y="94" width="49" height="10" rx="5" fill="#3bd3df"/><rect x="263" y="119" width="37" height="9" rx="4" fill="#7894a2"/><rect x="263" y="147" width="12" height="58" rx="5" fill="#3bd3df"/><rect x="282" y="132" width="12" height="73" rx="5" fill="#5aa7b5"/><rect x="301" y="114" width="12" height="91" rx="5" fill="#6ec9d3"/><rect x="18" y="84" width="68" height="50" rx="12" fill="#173a53" stroke="#d97b36" stroke-width="5"/><rect x="18" y="148" width="68" height="50" rx="12" fill="#173a53" stroke="#e3c04c" stroke-width="5"/><rect x="18" y="212" width="68" height="50" rx="12" fill="#173a53" stroke="#4fb96b" stroke-width="5"/><g fill="#edf4f5"><circle cx="39" cy="105" r="8"/><circle cx="39" cy="169" r="8"/><circle cx="39" cy="233" r="8"/></g><g fill="#7894a2"><rect x="52" y="101" width="22" height="7" rx="3"/><rect x="52" y="165" width="22" height="7" rx="3"/><rect x="52" y="229" width="22" height="7" rx="3"/></g></g></svg>